<svg xmlns="http://www.w3.org/2000/svg" viewBox="0 0 1100 780">
  <defs>
    <linearGradient id="bg" x1="0" x2="1" y1="0" y2="1"><stop stop-color="#06251f"/><stop offset=".55" stop-color="#0a5f5d"/><stop offset="1" stop-color="#2c6cff"/></linearGradient>
    <linearGradient id="card" x1="0" x2="1"><stop stop-color="#ffffff"/><stop offset="1" stop-color="#eafff7"/></linearGradient>
  </defs>
  <rect width="1100" height="780" rx="48" fill="url(#bg)"/>
  <circle cx="920" cy="110" r="150" fill="#eaff7b" opacity=".18"/>
  <circle cx="160" cy="680" r="210" fill="#00e0a4" opacity=".16"/>
  <rect x="70" y="70" width="960" height="640" rx="34" fill="#fff" opacity=".96"/>
  <rect x="105" y="115" width="230" height="540" rx="26" fill="#061f1a"/>
  <rect x="145" y="160" width="110" height="18" rx="9" fill="#eaff7b"/>
  <rect x="145" y="215" width="150" height="14" rx="7" fill="#d9f5ee" opacity=".55"/>
  <rect x="145" y="258" width="120" height="14" rx="7" fill="#d9f5ee" opacity=".45"/>
  <rect x="145" y="301" width="135" height="14" rx="7" fill="#d9f5ee" opacity=".45"/>
  <rect x="370" y="115" width="280" height="150" rx="24" fill="url(#card)"/>
  <rect x="690" y="115" width="300" height="150" rx="24" fill="#f4f7ff"/>
  <rect x="370" y="300" width="620" height="180" rx="24" fill="#f5fbf7"/>
  <rect x="370" y="515" width="180" height="140" rx="24" fill="#e6fff6"/>
  <rect x="585" y="515" width="180" height="140" rx="24" fill="#fff4ee"/>
  <rect x="800" y="515" width="190" height="140" rx="24" fill="#eef3ff"/>
  <path d="M405 425 C475 350 535 420 610 345 S760 390 930 322" fill="none" stroke="#00d596" stroke-width="12" stroke-linecap="round"/>
  <path d="M405 440 C510 470 575 390 655 432 S795 455 930 400" fill="none" stroke="#ff7b54" stroke-width="8" stroke-linecap="round" opacity=".8"/>
  <text x="405" y="178" font-family="Arial" font-size="44" font-weight="900" fill="#061f1a">64</text>
  <text x="405" y="220" font-family="Arial" font-size="24" fill="#60736e">content blocks</text>
  <text x="725" y="178" font-family="Arial" font-size="44" font-weight="900" fill="#061f1a">38%</text>
  <text x="725" y="220" font-family="Arial" font-size="24" fill="#60736e">lead growth map</text>
  <g fill="#061f1a" opacity=".75"><circle cx="430" cy="585" r="22"/><circle cx="675" cy="585" r="22"/><circle cx="895" cy="585" r="22"/></g>
</svg>