<svg xmlns="http://www.w3.org/2000/svg" viewBox="0 0 900 620"><defs><linearGradient id="a" x1="0" y1="0" x2="1" y2="1"><stop stop-color="#002f27"/><stop offset=".55" stop-color="#073b5b"/><stop offset="1" stop-color="#10152f"/></linearGradient><linearGradient id="b" x1="0" x2="1"><stop stop-color="#00e0a4"/><stop offset="1" stop-color="#eaff7b"/></linearGradient><filter id="glow"><feGaussianBlur stdDeviation="8" result="blur"/><feMerge><feMergeNode in="blur"/><feMergeNode in="SourceGraphic"/></feMerge></filter></defs><rect width="900" height="620" rx="56" fill="url(#a)"/><g opacity=".18" stroke="#fff"><path d="M0 120h900M0 245h900M0 370h900M0 495h900M130 0v620M310 0v620M490 0v620M670 0v620"/></g><g filter="url(#glow)"><path d="M130 455C230 260 385 210 489 335c83 100 166 81 255-76" fill="none" stroke="url(#b)" stroke-width="15" stroke-linecap="round"/><circle cx="132" cy="455" r="16" fill="#eaff7b"/><circle cx="489" cy="335" r="18" fill="#00e0a4"/><circle cx="744" cy="259" r="16" fill="#2c6cff"/></g><rect x="95" y="72" width="260" height="130" rx="28" fill="#ffffff" opacity=".95"/><text x="125" y="125" font-family="Arial" font-size="28" font-weight="900" fill="#061f1a">Energy Pulse</text><text x="125" y="163" font-family="Arial" font-size="22" fill="#37605a">-18% нічних витрат</text><rect x="560" y="410" width="245" height="118" rx="26" fill="#ffffff" opacity=".95"/><text x="590" y="462" font-family="Arial" font-size="26" font-weight="900" fill="#061f1a">ESG Radar</text><text x="590" y="497" font-family="Arial" font-size="20" fill="#37605a">reports ready</text><circle cx="720" cy="118" r="52" fill="#eaff7b" opacity=".95"/><path d="M695 125c22 2 39-11 47-33 2 30-16 52-51 56 6-10 7-14 4-23z" fill="#061f1a"/></svg>