<svg xmlns="http://www.w3.org/2000/svg" viewBox="0 0 760 440"><rect width="760" height="440" rx="36" fill="#071b21"/><g stroke="#00e0a4" opacity=".25"><path d="M0 60h760M0 140h760M0 220h760M0 300h760M0 380h760M90 0v440M210 0v440M330 0v440M450 0v440M570 0v440M690 0v440"/></g><path d="M110 330C180 250 245 278 305 210s95-105 168-63c69 40 84 130 173 91" fill="none" stroke="#eaff7b" stroke-width="8" stroke-linecap="round"/><circle cx="305" cy="210" r="16" fill="#00e0a4"/><circle cx="473" cy="147" r="16" fill="#2c6cff"/><circle cx="646" cy="238" r="16" fill="#eaff7b"/><text x="60" y="74" font-family="Arial" font-size="32" font-weight="900" fill="#fff">Хмельницький</text><text x="60" y="112" font-family="Arial" font-size="18" fill="#b4d8d0">операційний офіс та віддалена команда</text></svg>